<?xml version="1.0" standalone="no"?><!DOCTYPE svg PUBLIC "-//W3C//DTD SVG 1.1//EN" "http://www.w3.org/Graphics/SVG/1.1/DTD/svg11.dtd"><svg t="1532419710861" class="icon" style="" viewBox="0 0 1024 1024" version="1.1" xmlns="http://www.w3.org/2000/svg" p-id="3612" xmlns:xlink="http://www.w3.org/1999/xlink" width="200" height="200"><defs><style type="text/css"></style></defs><path d="M268.288 269.1072a34.8672 34.8672 0 1 0 0-69.7856 34.8672 34.8672 0 0 0 0 69.7856z m0 62.8224a97.6896 97.6896 0 1 1 0-195.3792 97.6896 97.6896 0 0 1 0 195.3792z" p-id="3613"></path><path d="M338.8928 748.1856v-76.0832h-10.3936c6.6048-10.6496 10.3936-23.1936 10.3936-36.6592V483.6864a69.7856 69.7856 0 0 0-139.5712 0v151.7568c0 13.4656 3.7888 26.0096 10.3936 36.6592h-10.3936v76.0832a132.5056 132.5056 0 0 1-62.7712-112.7424V483.6864a132.608 132.608 0 1 1 265.1648 0v151.7568c0 47.616-25.088 89.3952-62.8224 112.7424z" p-id="3614"></path><path d="M199.3216 637.184v1.7408c0 34.7136 28.16 62.8224 62.8224 62.8224v218.9312H199.3216v-283.4944zM338.8928 637.184v1.7408c0 34.7136-28.16 62.8224-62.8224 62.8224v218.9312H338.944v-283.4944z" p-id="3615"></path><path d="M666.6752 805.5296l0.1536 62.8224h-122.9824c-34.6624 0-62.7712-28.16-62.7712-62.8224V253.44c0-34.6624 28.1088-62.7712 62.7712-62.7712h121.2416v62.7712h-121.2416v552.1408h122.88z" p-id="3616"></path><path d="M693.9136 203.6736v45.3632h109.0048v-45.3632h-109.056z m-31.4368-62.7712h171.8272c17.3568 0 31.4368 14.0288 31.4368 31.3856v108.1856a31.3856 31.3856 0 0 1-31.4368 31.3856H662.528a31.3856 31.3856 0 0 1-31.3856-31.3856V172.288c0-17.3568 14.08-31.3856 31.3856-31.3856zM693.9136 509.8496v45.3632h109.0048v-45.3632h-109.056z m-31.4368-62.8224h171.8272c17.3568 0 31.4368 14.08 31.4368 31.4368v108.1344a31.3856 31.3856 0 0 1-31.4368 31.3856H662.528a31.3856 31.3856 0 0 1-31.3856-31.3856V478.464c0-17.3568 14.08-31.4368 31.3856-31.4368zM693.9136 814.2336v45.3632h109.0048v-45.3632h-109.056z m-31.4368-62.7712h171.8272c17.3568 0 31.4368 14.0288 31.4368 31.3856v108.1856a31.3856 31.3856 0 0 1-31.4368 31.3856H662.528a31.3856 31.3856 0 0 1-31.3856-31.3856V782.848c0-17.3568 14.08-31.3856 31.3856-31.3856z" p-id="3617"></path><path d="M492.8512 568.7296V505.856h190.208v62.8224z" p-id="3618"></path></svg>